<?xml version="1.0" standalone="no"?>
<!DOCTYPE svg PUBLIC "-//W3C//DTD SVG 1.1//EN" "http://www.w3.org/Graphics/SVG/1.1/DTD/svg11.dtd" >
<svg xmlns="http://www.w3.org/2000/svg">
<metadata>
This is a custom SVG webfont generated by Font Squirrel.
Copyright   :  2000 Daniel Midgley fontormaccom
</metadata>
<defs>
<font id="webfontZvYKLeck" horiz-adv-x="780" >
<font-face units-per-em="2048" ascent="1638" descent="-410" />
<missing-glyph horiz-adv-x="512" />
<glyph unicode=" "  horiz-adv-x="512" />
<glyph unicode="&#x09;" horiz-adv-x="512" />
<glyph unicode="&#xa0;" horiz-adv-x="512" />
<glyph unicode="!" horiz-adv-x="569" d="M164 104q0 49 37 86q35 35 84 35t88 -35q35 -35 35 -86q0 -49 -35 -84q-37 -37 -88.5 -36.5t-83.5 36.5q-37 33 -37 84zM199 809v625l172 14v-639l-15 -426l-143 -14z" />
<glyph unicode="&#x22;" horiz-adv-x="610" d="M61 1425q0 43 27 72q29 29 66 29q68 0 90 -62q4 -12 4 -22q0 -25 -12 -64l-72 -250l-55 2l-46 269q-2 10 -2 26zM369 1425q0 39 28 72q29 29 64 29q68 0 90 -62q4 -12 4 -22q0 -25 -12 -64l-72 -250l-55 2l-45 269q-2 8 -2 26z" />
<glyph unicode="#" horiz-adv-x="1200" d="M164 287v143h172v287h-172v143h172v287l143 14v-301h244v301l143 -14v-287h172v-143h-172v-287h172v-143h-172v-273l-143 -14v287h-244v-287l-143 14v273h-172zM479 430h244v287h-244v-287z" />
<glyph unicode="$" horiz-adv-x="972" d="M102 109l68 127q33 -18 72 -31q86 -33 164 -33h28v309h-20q-150 0 -226 82q-76 80 -75 207v8q4 96 100 176q96 78 221 101v121h144l2 -123q80 -12 153 -37q59 -20 78 -39l-61 -125q-43 18 -172 55v-280q293 -6 292 -250q0 -35 -2 -51q-20 -223 -290 -283v-74h-144v58h-33 q-76 2 -192 36q-91 28 -107 46zM287 750q0 -57 26 -84q33 -33 121 -39v274q-141 -40 -147 -129v-22zM578 199q125 49 124 151v4q-4 74 -24 101q-25 29 -100 30v-286z" />
<glyph unicode="%" horiz-adv-x="1345" d="M102 885q0 41 11 67q59 172 243 172q102 0 181 -67q74 -68 79 -170v-21q0 -95 -67 -166q-76 -78 -187 -82h-4q-100 0 -176 82q-80 83 -80 185zM193 70l774 1040l118 -68l-788 -1062zM238 870q2 -53 41 -92q31 -37 81 -37h5q102 6 114 121v17q0 51 -33 92q-33 43 -88 43 h-8q-49 -2 -82 -45q-31 -39 -30 -90v-9zM727 260q0 35 10 72q57 186 244 188h4q104 0 176 -71q74 -74 80 -181v-20q0 -102 -67 -176q-76 -86 -189 -88h-4q-102 0 -176 84q-78 88 -78 192zM862 250q2 -57 39 -103q35 -41 84 -41h4q106 6 115 138v16q0 55 -31 100 q-35 47 -90 48h-8q-53 -6 -84 -52q-29 -47 -29 -98v-8z" />
<glyph unicode="&#x26;" horiz-adv-x="1435" d="M102 391q0 102 68 189q49 63 160 143l76 57q-180 178 -181 318q0 12 4 32q27 135 115 211q78 66 186 70h5q123 0 217 -82t106 -227v-12q0 -80 -82 -183q-59 -72 -127 -125l303 -323l195 196l115 -112l-207 -199l278 -260l-125 -125l-250 266q-203 -229 -415 -229h-17 q-184 10 -303 125q-121 116 -121 270zM274 393q12 -109 80 -176q72 -74 191 -78h4q127 0 289 205l-303 326q-113 -70 -156 -107q-104 -86 -105 -157v-13zM377 1094q0 -80 147 -197q182 106 183 193v4q-6 70 -54 123q-49 51 -114 51h-4q-61 -3 -105 -49q-45 -51 -53 -113v-12 z" />
<glyph unicode="'" horiz-adv-x="303" d="M61 1425q0 43 27 72q29 29 66 29q68 0 90 -62q4 -12 4 -22q0 -25 -12 -64l-72 -250l-55 2l-46 269q-2 10 -2 26z" />
<glyph unicode="(" horiz-adv-x="667" d="M102 499.5q0 319.5 84 555.5q83 233 289 479l152 -68q-195 -231 -271 -446q-80 -217 -80 -520q0 -301 76 -514q77 -215 264 -443l-145 -75q-201 244 -285 479q-84 233 -84 552.5z" />
<glyph unicode=")" horiz-adv-x="667" d="M41 1466l152 68q209 -256 288 -481q84 -236 84 -553q0 -326 -82 -553q-82 -231 -286 -479l-146 75q190 231 264 445q76 213 76 512q0 297 -78 518q-77 212 -272 448z" />
<glyph unicode="*" horiz-adv-x="796" d="M102 1141l191 100l-191 100l66 121l178 -121l-10 199h131l-10 -201l172 123l65 -121l-182 -100l182 -100l-65 -121l-172 121l10 -215h-131l10 215l-178 -125z" />
<glyph unicode="+" horiz-adv-x="972" d="M164 358v144h235v215h172v-215h238v-144l-238 2v-217h-172v215h-235z" />
<glyph unicode="," horiz-adv-x="509" d="M102 -215l60 319q23 121 123 121q49 0 88 -35q35 -35 35 -86q0 -45 -48 -98l-180 -250z" />
<glyph unicode="-" d="M164 465v143h454v-143h-454z" />
<glyph unicode="." horiz-adv-x="448" d="M102 104q0 49 37 86q35 35 84 35t88 -35q35 -35 35 -86q0 -49 -35 -84q-37 -37 -88 -36.5t-84 36.5q-37 33 -37 84z" />
<glyph unicode="/" horiz-adv-x="919" d="M0 -256l762 1790l158 -61l-764 -1797z" />
<glyph unicode="0" horiz-adv-x="1337" d="M82 573.5q0 245.5 172 417.5q170 170 416 170q244 0 417 -170q170 -174 170 -418q0 -246 -170 -415q-172 -172 -417 -172q-248 0 -416 172q-172 170 -172 415.5zM254 573.5q0 -176.5 121 -303.5t295 -127t294.5 127t120.5 303.5t-120.5 303.5t-294.5 127t-295 -127 t-121 -303.5z" />
<glyph unicode="1" horiz-adv-x="606" d="M72 1014l202 133h170v-1147h-172v981l-133 -94z" />
<glyph unicode="2" horiz-adv-x="1048" d="M102 0v143q418 352 500 439q119 125 119 235q0 16 -2 25q-8 88 -90 147q-72 49 -144 49q-16 0 -24 -2q-158 -18 -295 -84l-51 138q184 84 356 84q199 0 289 -70q83 -61 117 -209q8 -31 8 -74q0 -313 -537 -678h557v-143h-803z" />
<glyph unicode="3" horiz-adv-x="995" d="M102 72l45 139q172 -92 297 -92q23 0 33 2q201 23 219 178q2 8 2 25q0 76 -53 135q-61 68 -162 67h-256v144q72 -2 170 -2q55 -2 80 2q180 39 180 176q0 27 -6 59q-12 57 -63 94q-53 35 -129 35q-104 0 -293 -82l-53 138q229 84 356 84q125 0 217 -62q90 -59 125 -176 q14 -49 14 -102q0 -162 -120 -236q152 -66 151 -264q0 -25 -2 -37q-8 -129 -104 -213q-98 -83 -240 -98q-12 -2 -39 -2q-148 0 -369 88z" />
<glyph unicode="4" horiz-adv-x="1056" d="M61 293v143l603 711h172v-711h159v-143h-159v-293l-172 2v291h-603zM254 436h410v479z" />
<glyph unicode="5" horiz-adv-x="1058" d="M143 78l47 137q193 -96 299 -96q20 0 31 2q96 12 162 76q72 66 72 155v8q-6 147 -158 220q-12 4 -35 4q-80 0 -285 -47l-112 92l43 518h616l15 -143h-484l-28 -318q125 31 223 31q162 0 262 -96q90 -94 102 -242q2 -10 2 -29q0 -129 -100 -229q-100 -96 -264 -137 q-28 -6 -62 -7q-145 1 -346 101z" />
<glyph unicode="6" horiz-adv-x="1091" d="M102 383q0 273 228 553q207 256 477 377l86 -123q-193 -88 -297 -178q-123 -104 -219 -267q70 39 178 39q175 0 301 -110q129 -115 133 -285v-4q0 -166 -127 -281q-131 -117 -307 -118h-12q-168 0 -303 112q-138 117 -138 285zM274 397q0 -126 80 -196q82 -72 203 -72 q115 0 188 80q72 78 72 197q0 108 -80 178q-86 70 -188 69q-117 0 -195 -69q-80 -72 -80 -187z" />
<glyph unicode="7" horiz-adv-x="1003" d="M143 -88q88 229 254 537q176 328 338 555h-571l12 143h731l15 -143q-141 -182 -347 -551q-203 -367 -296 -605z" />
<glyph unicode="8" horiz-adv-x="1056" d="M102 299v8q6 236 230 309q-180 70 -189 263v12q0 125 119 207q106 76 248 76h16q145 -6 244 -72q113 -76 119 -203v-20q0 -182 -170 -267q104 -31 172 -112q59 -82 63 -197v-4q0 -141 -127 -231q-119 -86 -280 -88h-17q-162 0 -288 81q-140 91 -140 238zM252 313 q0 -18 2 -28q12 -90 98 -144q71 -43 166 -43h17q106 4 176 58q82 59 84 149v8q0 96 -78 158q-84 66 -193 66q-113 0 -196 -72q-76 -68 -76 -152zM295 881q0 -72 59 -121q63 -53 154 -58h8q86 0 156 56q63 49 63 123v16q-6 76 -71.5 119t-151.5 43q-84 0 -147.5 -45 t-69.5 -121v-12z" />
<glyph unicode="9" horiz-adv-x="1091" d="M102 772q0 170 131 287q127 111 304 117h12q172 0 303 -113q137 -117 137 -285q0 -273 -227 -553q-207 -256 -477 -377l-86 123q193 88 297 179q123 104 219 266q-72 -39 -178 -39q-174 0 -306 115q-129 110 -129 280zM274 756q0 -111 82 -178q78 -70 187 -70 q117 0 194 70q80 70 80 186q0 126 -80 197q-82 72 -202 71q-117 0 -187 -80q-74 -79 -74 -196z" />
<glyph unicode=":" horiz-adv-x="448" d="M102 104q0 49 37 86q35 35 84 35t88 -35q35 -35 35 -86q0 -49 -35 -84q-37 -37 -88 -36.5t-84 36.5q-37 33 -37 84zM102 637q0 49 37 86q35 35 84 35t88 -35q35 -35 35 -86q0 -49 -35 -84q-37 -37 -88 -37t-84 37q-37 33 -37 84z" />
<glyph unicode=";" horiz-adv-x="509" d="M102 -215l60 319q23 121 123 121q49 0 88 -35q35 -35 35 -86q0 -45 -48 -98l-180 -250zM164 637q0 49 37 86q35 35 84 35t88 -35q35 -35 35 -86q0 -49 -35 -84q-37 -37 -88.5 -37t-83.5 37q-37 33 -37 84z" />
<glyph unicode="&#x3c;" horiz-adv-x="983" d="M164 442v138l600 284l51 -119l-491 -237l497 -248l-53 -117z" />
<glyph unicode="=" horiz-adv-x="905" d="M164 207v143h579v-143h-579zM164 436v144h579v-144h-579z" />
<glyph unicode="&#x3e;" horiz-adv-x="983" d="M164 748l53 116l604 -299v-137l-600 -285l-53 121l491 236z" />
<glyph unicode="?" horiz-adv-x="1017" d="M102 1346q233 119 377 118q20 0 31 -2q168 -16 287 -112q119 -100 118 -240q0 -137 -96 -252q-43 -49 -184 -156q-109 -80 -117 -131q-12 -70 -14 -114v-68l-172 -20v94v12q0 29 6 82q12 98 113 191l182 147q98 88 108 190v17q0 90 -79 149q-94 66 -199 66 q-160 0 -320 -105zM299 104q0 49 37 86q35 35 84 35t88 -35q35 -35 35 -86q0 -49 -35 -84q-37 -37 -88 -36.5t-84 36.5q-37 33 -37 84z" />
<glyph unicode="@" horiz-adv-x="1243" d="M102 502q0 55 9 98q31 182 180 291q138 104 338 110h37q172 0 282 -51q154 -68 185 -219q10 -55 10 -92q0 -137 -109 -242q-80 -74 -221 -94q-33 -4 -59 -4q-23 0 -84 4l2 14q-78 -23 -113 -22q-12 0 -18 2q-68 8 -131 72q-61 58 -62 129q0 59 51.5 124.5t110.5 96.5 q39 20 154 20q119 0 196 -14l-6 -63q-12 -127 -35 -256q98 49 146 102q53 61 55 149v9q0 121 -135 186q-100 47 -223 47q-37 0 -56 -2q-166 -12 -272 -131q-109 -121 -109 -281q0 -215 260 -319q57 -23 129 -23q160 0 375 93l-24 -101q-223 -90 -414 -90q-82 0 -137 21 q-150 55 -232 174q-80 110 -80 262zM502 485q0 -86 119 -86q31 0 61 7l29 235q-25 6 -49 6q-123 0 -156 -125q-4 -29 -4 -37z" />
<glyph unicode="A" horiz-adv-x="1396" d="M59 14l533 1420h213l532 -1420l-178 -28l-158 426h-606l-157 -426zM451 561h495l-248 668z" />
<glyph unicode="B" horiz-adv-x="1275" d="M164 0v1434q158 23 315 22q229 0 389 -59q227 -86 228 -279q0 -109 -76 -211q-76 -104 -180 -131q147 -49 237 -151q96 -109 97 -246q0 -217 -228 -322q-172 -78 -416 -77q-190 0 -366 20zM336 139q114 -18 215 -18q449 0 448 305q0 147 -196 215q-135 47 -320 47 q-92 0 -147 -12v-537zM336 846q34 -12 104 -12q168 0 303 57q182 74 183 217q0 203 -459 203q-61 0 -131 -4v-461z" />
<glyph unicode="C" horiz-adv-x="1273" d="M102 715v12q3 304 191 510q197 215 508 215q147 0 375 -78l-25 -153q-190 88 -340 88q-45 0 -76 -9q-217 -49 -338 -206.5t-121 -368.5v-8q2 -223 132 -379q125 -156 352 -197q27 -6 63 -6q162 0 369 103l20 -146q-258 -109 -415 -108q-27 0 -41 2q-287 29 -471 239 q-183 203 -183 490z" />
<glyph unicode="D" horiz-adv-x="1406" d="M164 0v1434q176 23 323 22q90 0 148 -8q307 -33 493 -225q176 -182 177 -455v-16q-10 -322 -181 -529q-186 -227 -503 -237h-62q-166 0 -395 14zM336 141q98 -18 188 -18q221 0 383 104q223 143 223 525q0 303 -256 454q-190 111 -440 111q-63 0 -98 -8v-1168z" />
<glyph unicode="E" horiz-adv-x="1167" d="M164 0v1434h848l14 -144h-690v-471h616v-143h-616v-533h731l-14 -143h-889z" />
<glyph unicode="F" horiz-adv-x="1126" d="M164 0v1434h848l14 -144h-690v-471h616v-143h-616v-676h-172z" />
<glyph unicode="G" horiz-adv-x="1429" d="M102 715q0 291 187 508q184 215 465 225h24q158 0 398 -70l-27 -153q-207 82 -358 82q-29 0 -43 -2q-211 -18 -347 -193q-129 -170 -129 -397q0 -231 134 -404q141 -182 339 -182q174 0 297 133q117 127 117 281v16h-368v143h534q2 -25 2 -73q0 -287 -162 -463 q-162 -180 -424 -180q-270 0 -458 225q-181 213 -181 504z" />
<glyph unicode="H" horiz-adv-x="1402" d="M164 0v1434l172 14v-629h731v615h172v-1434l-172 -14v690h-731v-676h-172z" />
<glyph unicode="I" horiz-adv-x="499" d="M164 0v1434l172 14v-1448h-172z" />
<glyph unicode="J" horiz-adv-x="1181" d="M72 197l88 116q205 -178 348 -178h20q123 12 183 51q52 34 98 123q27 55 37 170v969l172 -14v-949q-2 -27 -6 -75q-10 -92 -29 -131q-111 -268 -453 -287h-20q-115 0 -254 69q-107 59 -184 136z" />
<glyph unicode="K" horiz-adv-x="1236" d="M164 0v1434l172 14v-631l625 631l202 -29l-676 -676l709 -729l-199 -28l-661 680v-666h-172z" />
<glyph unicode="L" horiz-adv-x="1167" d="M164 0v1434l172 14v-1305h731l-14 -143h-889z" />
<glyph unicode="M" horiz-adv-x="1708" d="M102 14l127 1420l191 14l434 -1264l432 1264l191 -14l127 -1420l-174 -28l-84 1177l-394 -1163h-198l-394 1163l-84 -1177z" />
<glyph unicode="N" horiz-adv-x="1417" d="M166 0v1434l211 14l708 -1231v1217h168v-1434l-190 -14l-729 1251v-1251z" />
<glyph unicode="O" horiz-adv-x="1527" d="M102 715q0 299 189 512q190 221 477 221h4q274 -2 461 -213q184 -203 192 -490v-36q0 -280 -178 -492q-197 -231 -485 -231q-281 0 -471 223q-189 215 -189 506zM272 715q0 -229 148 -408q145 -178 346 -178q207 2 352 184q133 176 133 402v8q-4 236 -133 399 q-137 178 -352 183h-4q-217 0 -354 -181q-136 -173 -136 -409z" />
<glyph unicode="P" horiz-adv-x="1230" d="M164 0v1434q180 18 336 18q629 0 628 -405v-13q-4 -190 -135 -297q-135 -111 -346 -112q-2 0 -117.5 -3.5t-193.5 -5.5v-616h-172zM336 764q6 0 18.5 -1t34 -2t39.5 -1q102 -4 123 -4q383 0 407 278q2 10 3 27q0 248 -472 248q-58 0 -153 -6v-539z" />
<glyph unicode="Q" horiz-adv-x="1568" d="M102 719q0 297 201 516q197 213 485 213h5q285 -4 477 -207q195 -209 196 -496v-12q0 -164 -53 -289q-61 -133 -188 -241l155 -162l-135 -94l-135 145q-145 -106 -328 -106q-279 0 -477 223q-203 221 -203 510zM272 715q0 -231 156 -408q158 -178 358 -178q119 0 220 74 l-271 293l142 86l241 -263q172 172 174 404v12q0 224 -141 393q-143 172 -365 177h-4q-219 0 -366 -181q-144 -169 -144 -409z" />
<glyph unicode="R" horiz-adv-x="1298" d="M164 0v1434q180 18 336 18q629 0 628 -405v-13q-6 -285 -292 -377l362 -643l-188 -28l-346 641q-23 -2 -328 -11v-616h-172zM336 764q6 0 18.5 -1t34 -2t39.5 -1q102 -4 123 -4q383 0 407 278q2 10 3 27q0 248 -472 248q-58 0 -153 -6v-539z" />
<glyph unicode="S" horiz-adv-x="1204" d="M102 104l84 140q16 -16 144 -60q147 -51 229 -53h25q106 0 207 53q127 68 139 187q2 14 2 41q0 115 -80 188q-89 80 -246 80q-29 0 -43 -2q-12 -2 -35 -2q-174 0 -284 110q-119 111 -119 275v20q6 162 174 269q145 94 307 96h25q100 0 229 -31q127 -27 150 -51l-74 -141 q-200 80 -320 80h-16q-94 -6 -182 -60q-109 -68 -119 -168v-24q0 -115 84 -174q84 -57 242 -58h30h21q190 0 311 -121q117 -117 117 -299q0 -20 -4 -57q-37 -313 -547 -356q-12 -2 -39 -2q-100 0 -246 47q-138 45 -166 73z" />
<glyph unicode="T" horiz-adv-x="1265" d="M102 1290l15 144h1032l14 -144h-444v-1290h-172v1290h-445z" />
<glyph unicode="U" horiz-adv-x="1447" d="M164 586v848l172 14v-858q6 -51 14 -168q23 -127 88 -197q90 -96 273 -98h14q266 0 354 221q33 80 33 201v26v859h172v-861q-2 -283 -158 -440q-143 -147 -378 -147h-31q-254 8 -383 129q-158 145 -170 471z" />
<glyph unicode="V" horiz-adv-x="1396" d="M59 1419l179 29l462 -1272l463 1272l178 -29l-557 -1419h-168z" />
<glyph unicode="W" horiz-adv-x="1923" d="M41 1419l178 29l328 -1247l321 1212h189l321 -1212l328 1247l178 -29l-416 -1419h-182l-323 1212l-324 -1212h-182z" />
<glyph unicode="X" horiz-adv-x="1226" d="M61 14l457 731l-422 674l195 29l321 -561l324 561l192 -29l-419 -674l456 -731l-194 -28l-359 618l-356 -618z" />
<glyph unicode="Y" horiz-adv-x="1167" d="M20 1419l199 29l367 -688l368 688l195 -29l-477 -811v-608h-172v608z" />
<glyph unicode="Z" horiz-adv-x="1292" d="M102 143l848 1147h-819l10 144h1008l16 -136l-856 -1155h883l-14 -143h-1061z" />
<glyph unicode="[" horiz-adv-x="561" d="M164 -530v2064h358v-143h-186v-1780h186v-141h-358z" />
<glyph unicode="\" horiz-adv-x="919" d="M0 1473l158 61l762 -1790l-156 -68z" />
<glyph unicode="]" horiz-adv-x="561" d="M41 -389h186v1780h-186v143h358v-2064h-358v141z" />
<glyph unicode="^" horiz-adv-x="843" d="M102 1257l252 226h142l245 -226l-73 -79l-246 198l-246 -198z" />
<glyph unicode="_" horiz-adv-x="1615" d="M102 0h1411v-143h-1411v143z" />
<glyph unicode="`" horiz-adv-x="550" d="M61 1337l142 90l286 -223l-106 -57z" />
<glyph unicode="a" horiz-adv-x="1052" d="M82 303q0 160 127 252q113 82 280 82q119 0 224 -31q6 33 6 76q0 131 -68 174q-51 33 -188 33q-109 0 -264 -66l-64 125q199 84 332 84q422 0 422 -348l-4 -684h-172v45q-141 -61 -252 -61q-147 0 -258 86q-121 96 -121 233zM248 305q0 -176 219 -176q120 0 246 43v291 q-98 25 -205 24q-260 0 -260 -182z" />
<glyph unicode="b" horiz-adv-x="1189" d="M164 0v1473l172 14v-535q172 80 278 80h11q209 -8 329 -137q131 -137 133 -379v-20q0 -467 -448 -510q-8 -2 -27 -2q-108 0 -276 73v-57h-172zM336 184q172 -55 295 -55q90 0 129 33q86 68 123 149q33 82 32 191v12q-2 213 -159 326q-51 35 -133 34q-123 0 -287 -67v-623 z" />
<glyph unicode="c" horiz-adv-x="1038" d="M102 510q0 225 146 373q143 150 364 149q102 0 326 -84l-68 -135q-115 76 -292 76q-133 0 -224 -127q-80 -115 -80 -256q0 -139 82 -252q88 -125 222 -125q150 0 296 68l64 -127q-200 -86 -332 -86q-207 0 -354 159q-150 158 -150 367z" />
<glyph unicode="d" horiz-adv-x="1189" d="M102 496v20q2 242 131 379q119 127 330 137h10q106 0 281 -80v535l172 -14v-1473h-172v57q-172 -74 -279 -73q-18 0 -26 2q-447 43 -447 510zM274 502q0 -117 33 -191q33 -80 121 -149q39 -33 131 -33q123 0 295 55v623q-162 68 -287 67q-82 0 -133 -34 q-154 -111 -160 -326v-12z" />
<glyph unicode="e" horiz-adv-x="1136" d="M102 512q0 211 131 360q138 160 345 160q201 0 331 -153q129 -147 129 -349q0 -37 -10 -88l-741 -24q18 -129 119 -211q98 -86 227 -86q57 0 131 20q84 20 119 54l63 -125q-39 -37 -153 -64q-104 -25 -168 -24q-211 0 -367 159q-156 158 -156 371zM276 559l578 21 q-8 125 -82 213q-80 96 -201 96q-115 0 -204 -109q-81 -96 -91 -221z" />
<glyph unicode="f" horiz-adv-x="827" d="M61 881v129l183 -2q-4 41 -4 73q0 168 57 238q78 96 254 127q29 4 47 4q113 0 272 -61l-77 -132q-121 49 -213 50q-70 0 -111 -35q-57 -51 -57 -195q0 -29 4 -69l358 2v-129l-358 2v-883h-172v883z" />
<glyph unicode="g" horiz-adv-x="1208" d="M102 487v17q0 242 134 381q123 125 335 147h23q109 0 280 -86v72l173 -14v-1004q-2 -72 -13 -137q-29 -154 -96 -221q-115 -115 -287 -115q-70 0 -155 14q-88 12 -267 70l66 129q70 -25 82 -29q92 -29 153 -33q14 -2 43 -2q143 0 209 48q43 29 66 83q0 4 3 17.5l8 37 l11 50.5q6 25 7 53q0 18 -3 29v55q-160 -63 -266 -63h-22q-213 14 -340 133q-140 130 -144 368zM274 477q6 -201 160 -311q53 -37 152 -37q129 0 288 55v623q-195 68 -323 67q-80 0 -121 -30q-156 -119 -156 -355v-12z" />
<glyph unicode="h" horiz-adv-x="1153" d="M164 0v1473l172 14v-551l104 47q117 47 187 49h12q131 0 256 -76q129 -78 145 -178q14 -84 15 -405q0 -86 -4 -373h-177l3 637q0 236 -250 252h-13q-104 0 -278 -94v-795h-172z" />
<glyph unicode="i" horiz-adv-x="538" d="M164 1434q0 43 33 73q31 31 73 31q43 0 74 -30.5t31 -73.5t-31 -74t-74 -31t-73 31q-33 31 -33 74zM184 0v1004l172 14v-1018h-172z" />
<glyph unicode="j" horiz-adv-x="565" d="M-260 -422l41 119q117 -43 209 -43q70 0 110 29q51 39 72 94q10 23 31 119q10 57 10 137v28v943l172 14v-957q-2 -100 -18 -180q-37 -195 -127 -266q-108 -86 -283 -86q-80 0 -217 49zM193 1434q0 41 32 73q31 31 74 31t73.5 -30.5t30.5 -73.5t-30.5 -74t-73.5 -31 t-74 31q-32 33 -32 74z" />
<glyph unicode="k" horiz-adv-x="999" d="M164 0v1473l172 14v-836l428 377l166 -47l-484 -412l555 -557l-163 -43l-502 506v-475h-172z" />
<glyph unicode="l" horiz-adv-x="499" d="M164 0v1473l172 14v-1487h-172z" />
<glyph unicode="m" horiz-adv-x="1847" d="M164 0v1004l172 14v-100l44 26.5t52 30.5q109 53 180 57h9q82 0 174 -41q86 -40 141 -104q201 145 358 145h9q135 -2 262 -80q121 -76 137 -174q14 -88 14 -450q0 -205 -2 -328h-176v637q0 129 -55 188q-57 59 -180 66h-9q-104 0 -280 -127q16 -109 16 -500 q0 -168 -2 -264h-176v637v4q0 238 -240 250h-12q-101 0 -264 -105v-786h-172z" />
<glyph unicode="n" horiz-adv-x="1146" d="M164 0v1004l172 14v-100q16 8 52 28.5t54 28.5q117 53 191 57h12q129 0 248 -76q123 -78 139 -178q14 -84 15 -405q0 -229 -5 -373h-176l2 637q0 240 -235 252h-8q-104 0 -289 -103v-786h-172z" />
<glyph unicode="o" horiz-adv-x="1150" d="M82 512q0 217 145.5 368.5t358.5 151.5q207 0 346 -155q139 -158 139 -367q0 -207 -141 -365q-147 -160 -355 -159q-203 0 -348 159q-145 162 -145 367zM254 507.5q0 -149.5 88 -257.5q94 -119 238 -119q145 0 235 123q84 115 84 262q0 143 -86 254q-94 119 -233 119 q-143 0 -240 -121q-86 -111 -86 -260.5z" />
<glyph unicode="p" horiz-adv-x="1189" d="M164 -469v1473l172 14v-72q172 86 280 86h23q449 -43 448 -481v-21q-2 -244 -126 -387q-127 -143 -336 -157h-23q-106 0 -266 63v-504zM336 186q152 -55 272 -55q92 0 148 37q76 53 118 158q37 90 41 196v13q0 109 -30 174q-31 63 -125 137q-39 31 -119 31 q-121 0 -305 -66v-625z" />
<glyph unicode="q" horiz-adv-x="1193" d="M102 530v15q0 240 134 366q115 111 313 121h8q113 0 297 -86v72l172 -14v-1213q2 -86 49 -115q33 -20 129 -20l-74 -125q-49 4 -69 6q-76 12 -115 41q-92 70 -92 184v287q-164 -63 -268 -63h-23q-211 14 -334 157q-125 143 -127 387zM274 524q4 -106 41 -196 q43 -106 119 -158q52 -37 148 -37q123 0 272 55v623q-184 63 -311 63q-72 0 -115 -26q-90 -66 -123 -131q-31 -66 -31 -178v-15z" />
<glyph unicode="r" horiz-adv-x="882" d="M164 0v1004l172 14v-107q29 31 63 60q78 59 146 61h20q164 0 256 -69l-61 -129q-66 47 -215 57h-13q-98 0 -196 -111v-780h-172z" />
<glyph unicode="s" horiz-adv-x="1013" d="M102 68l68 127q145 -63 240 -64h16q119 8 213 51q104 51 104 127v4q-4 78 -38 111q-37 31 -148 31q-18 0 -84 -4q-14 -2 -43 -2q-141 0 -227 75q-90 80 -90 221q0 143 147 224q127 66 303 65q156 0 289 -84l-61 -125q-16 16 -84 41q-80 27 -150 27q-20 0 -49 -4 q-104 -22 -148 -43q-72 -39 -73 -107v-16q0 -76 55 -102q51 -27 180 -27h35h25q330 0 329 -266q0 -29 -2 -43q-14 -145 -168 -228q-127 -66 -319 -71h-8q-74 0 -193 32q-101 32 -119 50z" />
<glyph unicode="t" horiz-adv-x="759" d="M41 881v129l192 -2v245l168 29v-274l238 2v-129l-238 2v-639v-21q0 -70 39 -82q22 -6 43 -6q61 0 125 43l66 -129q-113 -63 -182 -63q-98 4 -168 45q-78 47 -84 125q-3 61 -7 61v-4v670z" />
<glyph unicode="u" horiz-adv-x="1146" d="M121 682q0 199 2 322l178 14l-2 -639q0 -117 39 -174q55 -83 197 -92h12q101 0 264 86v811h172v-996l-172 -28v71q-35 -14 -96 -34q-111 -33 -180 -37h-13q-123 0 -246 75q-125 76 -141 177q-14 88 -14 444z" />
<glyph unicode="v" horiz-adv-x="1097" d="M63 989l179 29l307 -842l307 842l178 -29l-401 -989h-168z" />
<glyph unicode="w" horiz-adv-x="1654" d="M61 989l179 29l249 -842l250 834h179l247 -834l252 842l176 -29l-340 -989h-178l-248 791l-249 -791h-177z" />
<glyph unicode="x" horiz-adv-x="993" d="M61 14l338 500l-321 475l176 29l244 -381l241 381l176 -29l-319 -475l338 -500l-178 -28l-258 403l-258 -403z" />
<glyph unicode="y" horiz-adv-x="1093" d="M61 989l183 29l321 -834l303 834l164 -29l-463 -1239q-4 -14 -12 -39.5t-8 -27.5q-27 -76 -66 -105q-53 -45 -184 -47l-74 125q88 0 115 20q37 23 72 115q0 2 9 25.5l27.5 74l38.5 109.5z" />
<glyph unicode="z" horiz-adv-x="1007" d="M102 143l582 723h-553v144h717l29 -136l-588 -731h616l-14 -143h-760z" />
<glyph unicode="{" horiz-adv-x="847" d="M164 408v182q49 22 86 43q86 53 102 117q10 51 10 137q0 33 -4 127q-4 98 -4 133q0 96 11 139q31 137 145 199q94 51 297 51l-35 -154q-35 6 -65 7q-78 0 -109 -35q-82 -90 -82 -260q0 -10 4 -101q2 -45 2 -102q0 -172 -76 -279q-27 -39 -102 -118q43 -39 102 -107 q82 -100 82 -270q0 -12 -4 -110.5t-4 -108.5q0 -158 78 -248q31 -35 109 -35q31 0 65 6l35 -153q-203 0 -297 51q-117 63 -143 198q-12 55 -13 150q0 31 4 121q4 94 4 127q0 84 -10 135q-22 90 -188 158z" />
<glyph unicode="|" horiz-adv-x="468" d="M164 0v1534h143v-1534h-143z" />
<glyph unicode="}" horiz-adv-x="847" d="M41 -532l35 153q35 -6 65 -6q78 0 109 35q78 90 78 248l-6 168v47q-4 74 8 118q18 86 71 156q49 57 103 107q-8 8 -103 118q-76 111 -75 281v-8q3 0 6 172v24q0 82 -13 133q-14 74 -69 140q-31 35 -109 35q-31 0 -65 -7l-35 154q201 0 297 -51q115 -61 145 -201 q12 -51 13 -149q0 -31 -4 -121q-4 -47 -5 -127q0 -98 11 -137q23 -92 186 -160v-182q-49 -22 -86 -43q-86 -55 -100 -115q-12 -53 -13 -131q0 53 2 53t9 -281v-20q0 -121 -25 -195q-35 -104 -133 -157q-94 -51 -297 -51z" />
<glyph unicode="~" horiz-adv-x="872" d="M63 498v164q20 45 80 75q66 35 123 35q70 0 176.5 -65.5t169.5 -65.5q72 0 203 131v-151q-123 -123 -203 -123q-68 0 -174 65q-102 63 -172 64h-4q-53 0 -115 -37q-64 -41 -84 -92z" />
<glyph unicode="&#xa2;" horiz-adv-x="1036" d="M102 555v4q0 170 115 295q115 123 295 158v135h143v-131q123 -16 248 -72l-22 -121q-12 6 -70 33q-74 31 -156 41v-672q123 10 263 101l18 -119q-35 -23 -88 -47q-102 -45 -193 -58v-102h-143v106q-178 29 -291 154q-115 121 -119 295zM244 545q6 -109 82 -187 q74 -82 186 -116v645q-115 -39 -193 -129q-76 -94 -75 -197v-16z" />
<glyph unicode="&#xa3;" horiz-adv-x="1007" d="M102 0v143h15q59 0 86 15q51 27 73 84v231h-174v143h174v168q0 137 86 238q86 98 224 119q10 2 30 2q104 0 263 -86l-48 -123q-106 68 -186 67q-187 0 -196 -221v-164h358v-143h-358v-227q0 -20 -9 -53q-9 -22 -30 -50h495v-143h-803z" />
<glyph unicode="&#xa5;" horiz-adv-x="1150" d="M102 1114l183 23l290 -459l293 459l183 -23l-379 -571h235v-144h-233v-106h233v-143h-233v-150h-195v150h-233v143h233v106h-233v144h235z" />
<glyph unicode="&#xa9;" horiz-adv-x="1114" d="M102 704.5q0 188.5 136 323.5q133 133 321.5 133t321.5 -133q133 -137 133 -323q0 -188 -133 -322q-131 -135 -321.5 -135t-321.5 135q-136 133 -136 321.5zM217 704.5q0 -141.5 100.5 -242t241.5 -100.5t242 101q98 102 98 241.5t-98 241.5q-100 100 -241.5 100.5 t-242 -100t-100.5 -242zM330 702v7q4 94 61 157q59 66 150 78q6 2 20 2q55 0 141 -37l-10 -98q-70 39 -123 39q-55 0 -85.5 -43t-30.5 -102q0 -57 32 -101q35 -41 90 -41q57 0 134 51l8 -100q-98 -49 -160 -49h-12q-96 10 -156 78q-59 69 -59 159z" />
<glyph unicode="&#xad;" d="M164 465v143h454v-143h-454z" />
<glyph unicode="&#xae;" horiz-adv-x="1114" d="M102 704.5q0 188.5 136 323.5q133 133 321.5 133t321.5 -133q133 -137 133 -323q0 -188 -133 -322q-131 -135 -321.5 -135t-321.5 135q-136 133 -136 321.5zM217 704.5q0 -141.5 100.5 -242t241.5 -100.5t242 101q98 102 98 241.5t-98 241.5q-100 100 -241.5 100.5 t-242 -100t-100.5 -242zM410 473v461q63 8 118 8q23 0 33 -2q172 -15 172 -141v-4q-4 -82 -76 -121l105 -191l-107 -18l-96 186q-31 0 -53 -2v-176h-96zM506 743h20q102 0 109 56v4q0 33 -60 41q-33 4 -53 4h-16v-105z" />
<glyph unicode="&#xb4;" horiz-adv-x="569" d="M72 1204l288 223l140 -90l-320 -190z" />
<glyph unicode="&#x2000;" horiz-adv-x="768" />
<glyph unicode="&#x2001;" horiz-adv-x="1538" />
<glyph unicode="&#x2002;" horiz-adv-x="768" />
<glyph unicode="&#x2003;" horiz-adv-x="1538" />
<glyph unicode="&#x2004;" horiz-adv-x="512" />
<glyph unicode="&#x2005;" horiz-adv-x="382" />
<glyph unicode="&#x2006;" horiz-adv-x="256" />
<glyph unicode="&#x2007;" horiz-adv-x="256" />
<glyph unicode="&#x2008;" horiz-adv-x="190" />
<glyph unicode="&#x2009;" horiz-adv-x="307" />
<glyph unicode="&#x200a;" horiz-adv-x="83" />
<glyph unicode="&#x2010;" d="M164 465v143h454v-143h-454z" />
<glyph unicode="&#x2011;" d="M164 465v143h454v-143h-454z" />
<glyph unicode="&#x2012;" d="M164 465v143h454v-143h-454z" />
<glyph unicode="&#x2013;" horiz-adv-x="1107" d="M143 465v143h824v-143h-824z" />
<glyph unicode="&#x2014;" horiz-adv-x="1681" d="M143 465v143h1397v-143h-1397z" />
<glyph unicode="&#x2018;" horiz-adv-x="374" d="M61 1196q0 35 41 82l158 219l53 -20l-53 -281q-18 -95 -98 -98q-41 0 -70 28q-31 29 -31 70z" />
<glyph unicode="&#x2019;" horiz-adv-x="374" d="M61 1120l54 281q18 98 98 98q39 0 72 -29q29 -29 28 -69q0 -37 -39 -82l-157 -219z" />
<glyph unicode="&#x201c;" horiz-adv-x="686" d="M61 1196q0 35 41 82l158 219l53 -20l-53 -281q-18 -95 -98 -98q-41 0 -70 28q-31 29 -31 70zM375 1196q0 35 41 82l157 219l54 -20l-54 -281q-18 -96 -98 -100q-41 0 -69 30q-31 29 -31 70z" />
<glyph unicode="&#x201d;" horiz-adv-x="686" d="M61 1120l54 281q18 98 98 98q39 0 72 -29q29 -29 28 -69q0 -37 -39 -82l-157 -219zM375 1120l53 281q18 98 98 98q39 0 72 -29q29 -29 29 -69q0 -37 -39 -82l-158 -219z" />
<glyph unicode="&#x2022;" horiz-adv-x="622" d="M102 586q0 86 62 143q59 57 147 57t148 -57q61 -57 61 -143q0 -82 -61 -144q-63 -59 -147.5 -59t-147.5 59q-62 62 -62 144z" />
<glyph unicode="&#x2026;" horiz-adv-x="1267" d="M102 104q0 49 37 86q35 35 84 35t88 -35q35 -35 35 -86q0 -49 -35 -84q-37 -37 -88 -36.5t-84 36.5q-37 33 -37 84zM512 104q0 49 37 86q35 35 84 35t88 -35q35 -35 35 -86q0 -49 -35 -84q-37 -37 -88 -36.5t-84 36.5q-37 33 -37 84zM922 104q0 49 36 86q35 35 84.5 35 t87.5 -35q35 -35 35 -86q0 -49 -35 -84q-37 -37 -88 -36q-47 0 -83.5 36.5t-36.5 83.5z" />
<glyph unicode="&#x202f;" horiz-adv-x="307" />
<glyph unicode="&#x205f;" horiz-adv-x="382" />
<glyph unicode="&#x20ac;" horiz-adv-x="1314" d="M102 444l43 91h129v24q0 49 5 76h-177l43 92h152q49 180 186 293q135 111 332 121h16q135 0 381 -94l-75 -152q-45 27 -90 41q-113 43 -238 43q-111 0 -188 -70q-82 -70 -123 -182h555l-43 -92h-535q-8 -47 -8 -76q2 -4 3 -12t1 -12h487l-43 -91h-432q31 -129 117 -208 q89 -89 209 -93h14q141 0 320 76l69 -141q-236 -96 -372 -96q-25 0 -35 2q-193 18 -334 147q-141 127 -182 313h-187z" />
<glyph unicode="&#x2122;" horiz-adv-x="1308" d="M143 1343v91h441v-91h-168v-458h-105v458h-168zM584 895l51 539h96l143 -379l140 379h98l53 -539l-108 -18l-27 301l-108 -293h-95l-110 293l-25 -301z" />
<glyph unicode="&#xe000;" horiz-adv-x="1020" d="M0 1020h1020v-1020h-1020v1020z" />
<glyph unicode="&#xfb01;" horiz-adv-x="1366" d="M993 1434q0 43 33 73q31 31 73 31q43 0 74 -30.5t31 -73.5t-31 -74t-74 -31t-73 31q-33 31 -33 74zM1013 0v1004l172 14v-1018h-172zM61 881v129l183 -2q-4 41 -4 73q0 168 57 238q78 96 254 127q29 4 47 4q113 0 272 -61l-77 -132q-121 49 -213 50q-70 0 -111 -35 q-57 -51 -57 -195q0 -29 4 -69l358 2v-129l-358 2v-883h-172v883z" />
<glyph unicode="&#xfb02;" horiz-adv-x="1327" d="M993 0v1473l172 14v-1487h-172zM61 881v129l183 -2q-4 41 -4 73q0 168 57 238q78 96 254 127q29 4 47 4q113 0 272 -61l-77 -132q-121 49 -213 50q-70 0 -111 -35q-57 -51 -57 -195q0 -29 4 -69l358 2v-129l-358 2v-883h-172v883z" />
<glyph unicode="&#xfb03;" horiz-adv-x="2195" d="M1823 1434q0 43 33 73q31 31 73 31q43 0 74 -30.5t31 -73.5t-31 -74t-74 -31t-73 31q-33 31 -33 74zM1843 0v1004l172 14v-1018h-172zM890 881v129l183 -2q-4 41 -4 73q0 168 57 238q78 96 254 127q29 4 47 4q113 0 272 -61l-77 -132q-121 49 -213 50q-70 0 -111 -35 q-57 -51 -57 -195q0 -29 4 -69l358 2v-129l-358 2v-883h-172v883zM61 881v129l183 -2q-4 41 -4 73q0 168 57 238q78 96 254 127q29 4 47 4q113 0 272 -61l-77 -132q-121 49 -213 50q-70 0 -111 -35q-57 -51 -57 -195q0 -29 4 -69l358 2v-129l-358 2v-883h-172v883z" />
<glyph unicode="&#xfb04;" horiz-adv-x="2156" d="M1823 0v1473l172 14v-1487h-172zM890 881v129l183 -2q-4 41 -4 73q0 168 57 238q78 96 254 127q29 4 47 4q113 0 272 -61l-77 -132q-121 49 -213 50q-70 0 -111 -35q-57 -51 -57 -195q0 -29 4 -69l358 2v-129l-358 2v-883h-172v883zM61 881v129l183 -2q-4 41 -4 73 q0 168 57 238q78 96 254 127q29 4 47 4q113 0 272 -61l-77 -132q-121 49 -213 50q-70 0 -111 -35q-57 -51 -57 -195q0 -29 4 -69l358 2v-129l-358 2v-883h-172v883z" />
</font>
</defs>
</svg>
