<?xml version="1.0" standalone="no"?>
<!DOCTYPE svg PUBLIC "-//W3C//DTD SVG 1.1//EN" "http://www.w3.org/Graphics/SVG/1.1/DTD/svg11.dtd" >
<svg xmlns="http://www.w3.org/2000/svg">
<metadata>
This is a custom SVG webfont generated by Font Squirrel.
Copyright   :  2000 Daniel Midgley fontormaccom
</metadata>
<defs>
<font id="webfontWBABdmNS" horiz-adv-x="833" >
<font-face units-per-em="2048" ascent="1638" descent="-410" />
<missing-glyph horiz-adv-x="552" />
<glyph unicode=" "  horiz-adv-x="552" />
<glyph unicode="&#x09;" horiz-adv-x="552" />
<glyph unicode="&#xa0;" horiz-adv-x="552" />
<glyph unicode="!" horiz-adv-x="622" d="M150 137.5q0 61.5 47 108.5q45 45 114 45q68 0 115 -45q49 -45 49 -108.5t-49 -108.5q-47 -45 -115 -45q-70 0 -114 45q-47 47 -47 108.5zM184 803v629l254 20v-649l-16 -418l-221 -20z" />
<glyph unicode="&#x22;" horiz-adv-x="665" d="M47 1411q0 57 39 84q41 29 94 29q61 0 101 -33q33 -29 32 -68q0 -14 -2 -22q-4 -16 -12 -41l-80 -232l-121 2l-49 250q-2 13 -2 31zM354 1411q0 57 39 84q41 29 94 29q61 0 101 -33q33 -27 33 -68q0 -14 -3 -22q-4 -16 -12 -41l-80 -232l-120 2l-50 250q-2 13 -2 31z" />
<glyph unicode="#" horiz-adv-x="1251" d="M150 268v211h172v191h-172v211h172v264l225 20v-284h162v284l225 -20v-264h172v-211h-172v-191h172v-211h-172v-252l-225 -20v272h-162v-272l-225 20v252h-172zM547 479h162v191h-162v-191z" />
<glyph unicode="$" horiz-adv-x="1054" d="M88 131l100 178q33 -16 78 -35q102 -37 164 -38v213q-150 6 -242 92q-82 80 -82 192q0 104 78 193q92 98 246 131v119h223l2 -119q164 -27 242 -99l-92 -174q-35 16 -150 52v-177q313 -25 314 -280q0 -119 -97 -213q-92 -86 -217 -119v-78h-227l2 54q-88 2 -201 38 q-100 33 -141 70zM344 743q0 -66 86 -77l-2 157q-80 -39 -84 -67v-13zM655 287l54 41q29 23 28 39q-2 68 -82 82v-162z" />
<glyph unicode="%" horiz-adv-x="1519" d="M86 862q0 41 14 76q63 186 283 186q117 0 207 -71q84 -74 94 -185v-20q0 -106 -80 -182q-86 -86 -215 -91h-4q-119 0 -207 89q-92 89 -92 198zM246 96l817 1028l190 -102l-841 -1061zM305 856q0 -37 23 -63q20 -27 57 -27h4q66 2 76 80v12q0 31 -23 60q-27 27 -59 26h-4 q-74 -2 -74 -88zM836 283q0 39 12 75q31 90 106 148q74 55 176 55q119 0 207 -78q84 -78 95 -194v-21q0 -106 -78 -190q-88 -92 -217 -94h-4q-121 0 -207 90q-90 94 -90 209zM1053 283q0 -45 22 -74q20 -33 58 -33h4q76 4 75 98q0 41 -22 76q-23 31 -60 31h-4 q-73 -3 -73 -98z" />
<glyph unicode="&#x26;" horiz-adv-x="1503" d="M88 408q0 117 90 219q59 59 195 151q-162 174 -162 303q0 14 4 35q35 147 133 223q94 72 213 72q135 0 240 -86q109 -90 125 -244v-12q0 -129 -191 -295l244 -248l192 185l175 -160l-205 -189l278 -245l-184 -174l-250 250q-199 -199 -414 -199h-20q-199 8 -330 131 q-133 121 -133 283zM342 414q8 -88 72 -148q55 -55 159 -59h5q96 0 231 153l-256 261q-211 -119 -211 -199v-8zM444 1069q0 -52 111 -135q137 76 137 135q-3 52 -43 92q-39 37 -84 37h-4q-43 -2 -78 -37q-33 -37 -39 -84v-8z" />
<glyph unicode="'" horiz-adv-x="356" d="M47 1411q0 57 39 84q41 29 94 29q61 0 101 -33q33 -29 32 -68q0 -14 -2 -22q-4 -16 -12 -41l-80 -232l-121 2l-49 250q-2 13 -2 31z" />
<glyph unicode="(" horiz-adv-x="743" d="M88 500q0 322 88 553q90 231 313 489l232 -98q-213 -242 -295 -451q-82 -207 -82 -493.5t76 -483.5q80 -207 287 -448l-220 -111q-225 262 -313 496q-86 232 -86 547z" />
<glyph unicode=")" horiz-adv-x="743" d="M27 1444l229 98q225 -262 313 -493q90 -236 90 -549q0 -319 -88 -547q-86 -231 -311 -496l-221 111q203 240 285 446q80 206 79 486q0 281 -81 491q-84 207 -295 453z" />
<glyph unicode="*" horiz-adv-x="876" d="M88 1165l158 74l-158 74l107 176l147 -90l-8 141h217l-8 -139l141 88l107 -176l-152 -74l152 -74l-107 -174l-141 88l8 -153h-217l8 153l-147 -90z" />
<glyph unicode="+" horiz-adv-x="1024" d="M150 332v196h235l2 189h252v-189h238v-196l-238 2l2 -191h-256v189h-235z" />
<glyph unicode="," horiz-adv-x="520" d="M88 -227l62 336q25 137 143 137q59 0 100 -39q43 -39 43 -103q0 -43 -49 -110l-190 -262z" />
<glyph unicode="-" d="M150 424v225h536v-225h-536z" />
<glyph unicode="." horiz-adv-x="499" d="M88 145.5q0 67.5 47 114.5t115 47q63 0 115 -47q49 -47 49 -114.5t-49 -114.5q-51 -47 -115 -47q-68 0 -115 47t-47 114.5z" />
<glyph unicode="/" horiz-adv-x="1017" d="M-6 -242l797 1786l233 -86l-797 -1794z" />
<glyph unicode="0" horiz-adv-x="1431" d="M88 573.5q0 245.5 184 417.5q186 170 444.5 170t444.5 -170q184 -172 184.5 -417.5t-184.5 -415.5q-184 -172 -444 -172t-445 172q-184 170 -184 415.5zM342 569q0 -147 109 -252q109 -109 266 -108q154 0 266 108q109 109 109 256q-3 151 -111 258q-109 106 -264 107 q-160 0 -266 -107q-109 -109 -109 -258v-4z" />
<glyph unicode="1" horiz-adv-x="700" d="M88 997l246 150h221v-1147h-254v881l-106 -70z" />
<glyph unicode="2" horiz-adv-x="1140" d="M129 0v190l320 252q184 150 243 228q53 70 53 135v16q-8 66 -75 113q-55 37 -115 37q-14 0 -20 -2q-156 -18 -322 -95l-84 203q219 96 410 97q207 0 313 -72q96 -68 133 -219q8 -33 8 -76q0 -283 -448 -596h469v-211h-885z" />
<glyph unicode="3" horiz-adv-x="1099" d="M129 82l72 209q194 -104 319 -105q20 0 31 2q166 18 182 134v16q0 57 -41 104q-49 49 -131 50h-297v213q96 -4 215 -5q57 0 66 2q147 31 147 127q0 14 -4 48q-23 90 -153 90q-100 0 -316 -90l-82 202q274 94 409.5 94.5t241.5 -65.5q100 -63 140 -186q14 -51 14 -105 q0 -133 -88 -215q121 -86 121 -256q0 -20 -2 -33q-10 -139 -125 -229q-104 -82 -256 -98q-12 -2 -39 -2q-154 0 -424 98z" />
<glyph unicode="4" horiz-adv-x="1107" d="M47 272v187l625 688h231v-664h160v-211h-160v-272l-254 2v270h-602zM350 483h299v326z" />
<glyph unicode="5" horiz-adv-x="1116" d="M129 90l74 203q211 -106 323 -107q16 0 25 2q90 12 143 66q53 51 54 117q0 111 -134 172q-4 2 -20 2q-78 0 -291 -49l-145 112l47 539h692l23 -211h-492l-20 -209q104 18 180 18q37 0 53 -2q152 -18 248 -116q88 -90 100 -234q2 -10 2 -28q0 -139 -112 -242 q-104 -102 -283 -139q-27 -6 -64 -7q-163 0 -403 113z" />
<glyph unicode="6" horiz-adv-x="1144" d="M86 393q0 23 2 33q27 272 238 504q129 139 221 217q131 106 309 186l137 -176q-348 -168 -504 -352q34 6 93 6q180 0 319 -102q135 -98 154 -271q2 -14 2 -41q0 -158 -133 -278q-143 -131 -342 -133h-13q-188 0 -340 133q-143 124 -143 274zM326 412q6 -92 82 -154 q70 -59 159 -59h13q104 2 172 69q57 57 57 138q0 82 -61 143q-61 59 -175 61h-8q-98 0 -168 -55q-72 -59 -71 -135v-8z" />
<glyph unicode="7" horiz-adv-x="1046" d="M88 -74q88 221 246 506q137 250 319 504h-538l20 211h805l21 -184q-152 -186 -353 -525q-203 -350 -311 -604z" />
<glyph unicode="8" horiz-adv-x="1107" d="M88 313v13q2 195 176 290q-129 83 -135 240v16q0 135 135 224q121 78 283 78h8q156 -4 266 -74q127 -84 135 -219v-21q0 -154 -120 -244q184 -94 186 -294v-5q0 -154 -145 -249q-133 -86 -304 -88h-16q-174 0 -313 81q-156 94 -156 252zM319 328q0 -14 3 -21 q10 -68 75 -104q63 -35 144 -35q96 0 159 39q74 47 80 119v8q0 68 -63 117q-70 51 -166 51q-102 0 -170 -60q-62 -53 -62 -114zM362 862q0 -51 48 -90q43 -37 127 -41h8q76 0 129 41q47 41 47 94q0 51 -47 88q-47 35 -125 35h-8q-86 -4 -131 -39q-48 -35 -48 -88z" />
<glyph unicode="9" horiz-adv-x="1144" d="M86 762q0 158 133 278q141 129 342 136h12q195 0 342 -134q141 -126 142 -276q0 -20 -2 -33q-29 -285 -238 -516q-131 -143 -219 -209q-125 -98 -301 -170l-139 178q347 147 497 338q-39 -8 -94 -8q-184 0 -315 100q-139 106 -158 275q-2 14 -2 41zM317 743 q6 -84 76 -139q70 -53 174 -57h8q106 0 183 57q74 55 73 131v13q-2 94 -81 157q-76 57 -177 58h-12q-109 -6 -176 -68q-68 -59 -68 -143v-9z" />
<glyph unicode=":" horiz-adv-x="458" d="M88 125q0 59 41 100t100 41q55 0 101 -41q43 -41 43 -100t-43 -100q-45 -41 -101 -41q-61 0 -100 43q-41 41 -41 98zM88 637q0 59 41 100t100 41q55 0 101 -41q43 -41 43 -100t-43 -100q-45 -41 -101 -41q-61 0 -100 43q-41 41 -41 98z" />
<glyph unicode=";" horiz-adv-x="520" d="M88 -227l62 336q25 137 143 137q59 0 100 -39q43 -39 43 -103q0 -45 -51 -110l-190 -262zM152 637q0 59 40.5 100t100.5 41q55 0 100 -41q43 -41 43 -100t-43 -100q-45 -41 -100 -41q-59 0 -100 43q-41 41 -41 98z" />
<glyph unicode="&#x3c;" horiz-adv-x="1048" d="M150 426v168l661 283l86 -175l-453 -194l457 -205l-88 -172z" />
<glyph unicode="=" horiz-adv-x="956" d="M150 166v186h661v-186h-661zM150 436v185h661v-185h-661z" />
<glyph unicode="&#x3e;" horiz-adv-x="1048" d="M150 705l86 174l665 -297v-168l-661 -283l-86 174l452 195z" />
<glyph unicode="?" horiz-adv-x="1075" d="M88 1331q276 133 430 133q20 0 31 -2q178 -16 303 -112q139 -109 139 -260q0 -197 -203 -351l-108 -75q-80 -61 -86 -91q-14 -59 -14 -102v-78l-254 -28v110q0 156 100 262q8 12 192 156q106 82 117 176v8q0 61 -53 109q-55 49 -145 59q-12 2 -37 2q-151 0 -344 -123z M293 137.5q0 61.5 47 108.5q45 45 115 45q68 0 114 -45q49 -45 49 -108.5t-49 -108.5q-47 -45 -114 -45q-70 0 -115 45q-47 47 -47 108.5z" />
<glyph unicode="@" horiz-adv-x="1331" d="M86 522q0 45 8 84q33 193 213 312q160 104 375 114h45q168 0 297 -53q180 -78 213 -242q8 -35 8 -80q0 -154 -135 -282q-109 -106 -309 -107q-47 0 -113 6q-45 -10 -72 -10q-18 0 -26 2q-78 8 -150 80q-70 74 -69 152q0 68 59 143q51 70 121 104q47 25 164 25 q131 0 233 -20q-16 -166 -37 -306q74 6 125 76q43 59 47 137v9q0 86 -112 155q-115 70 -260 70q-164 0 -293 -92q-147 -104 -168 -279q-2 -10 -2 -28q0 -88 71 -177q77 -89 209 -141q49 -18 117 -18q170 0 442 112l-45 -155q-240 -98 -442 -99q-82 0 -143 23 q-168 61 -269 192q-102 133 -102 293zM584 487q0 -59 86 -59q25 0 39 2l22 184h-18q-100 0 -125 -100q-4 -21 -4 -27z" />
<glyph unicode="A" horiz-adv-x="1478" d="M47 20l557 1414h270l558 -1414l-258 -38l-160 407h-549l-160 -407zM549 606h381l-191 488z" />
<glyph unicode="B" horiz-adv-x="1325" d="M150 2v1428q197 25 366 24q104 0 168 -8q453 -59 477 -318q2 -10 2 -26q0 -86 -47 -170q-49 -94 -139 -152q109 -55 184 -151q80 -109 80 -232q-4 -184 -172 -297q-145 -96 -352 -114q-65 -6 -154 -6q-171 -1 -413 22zM403 203q92 -12 172 -13q410 0 410 252 q0 115 -151 170q-117 41 -289 41q-86 0 -142 -8v-442zM403 868q43 -8 101 -8q215 0 340 107q70 59 69 112q0 41 -41 78q-96 84 -370 84q-63 0 -99 -2v-371z" />
<glyph unicode="C" horiz-adv-x="1368" d="M88 715v12q4 285 193 485q190 203 485 236q14 2 51 2q166 0 432 -86l-41 -229q-223 102 -370 102q-39 0 -66 -6q-207 -47 -315 -182q-113 -133 -113 -324v-8q0 -199 119 -332q119 -137 332 -174q33 -4 55 -4q162 0 401 115l33 -222q-293 -117 -465 -116q-27 0 -41 2 q-303 27 -497 241q-193 205 -193 488z" />
<glyph unicode="D" horiz-adv-x="1456" d="M150 2v1428q203 25 372 24q397 0 629 -194q221 -190 221 -490v-20q-8 -313 -188 -525q-200 -230 -535 -239h-57q-141 0 -442 16zM403 205q82 -10 146 -10q209 0 362 92q205 123 205 463q0 266 -239 397q-178 98 -412 98q-43 0 -62 -2v-1038z" />
<glyph unicode="E" horiz-adv-x="1224" d="M150 0v1434h925l23 -213h-695v-371h617v-213h-617v-424h736l-23 -213h-966z" />
<glyph unicode="F" horiz-adv-x="1183" d="M150 0v1434h925l23 -213h-695v-371h617v-213h-617v-637h-253z" />
<glyph unicode="G" horiz-adv-x="1478" d="M88 715q0 289 197 508q195 215 493 225h23q160 0 446 -78l-41 -227q-231 94 -393 94q-25 0 -37 -2q-195 -16 -315 -164q-123 -151 -123 -356q0 -203 129 -361q127 -156 303 -155q147 0 254 100q106 98 119 229h-369v213h615q4 -53 4 -82q0 -303 -172 -487 q-174 -186 -455 -186q-289 0 -490 225q-188 219 -188 504z" />
<glyph unicode="H" horiz-adv-x="1452" d="M150 0v1432l253 20v-602h650v584h254v-1432l-254 -20v655h-650v-637h-253z" />
<glyph unicode="I" horiz-adv-x="550" d="M150 0v1432l253 20v-1452h-253z" />
<glyph unicode="J" horiz-adv-x="1243" d="M57 221l136 170q213 -186 350 -186h20q111 8 164 43q43 25 86 102q25 47 31 144v958l254 -20v-934q-4 -53 -6 -76q-14 -96 -31 -135q-119 -276 -490 -295h-24q-248 0 -490 229z" />
<glyph unicode="K" horiz-adv-x="1331" d="M150 0v1432l253 20v-547l570 545l303 -41l-705 -668l738 -716l-301 -41l-605 589v-573h-253z" />
<glyph unicode="L" horiz-adv-x="1224" d="M150 0v1432l253 20v-1239h736l-23 -213h-966z" />
<glyph unicode="M" horiz-adv-x="1765" d="M88 18l133 1414l260 18l402 -1098l389 1098l260 -18l149 -1414l-264 -38l-82 948l-315 -928h-268l-332 928l-72 -948z" />
<glyph unicode="N" horiz-adv-x="1490" d="M150 2v1430l299 18l641 -1036v1020h253v-1432l-278 -18l-662 1056v-1058z" />
<glyph unicode="O" horiz-adv-x="1576" d="M86 715q0 299 199 512q203 221 510 221h4q292 -3 491 -215q190 -201 201 -488v-32q0 -281 -188 -494q-206 -233 -517 -233q-299 0 -501 225q-199 213 -199 504zM338 715q0 -203 137 -359q135 -158 316 -157q188 4 319 161q125 150 125 351v12q-4 207 -123 354 q-127 154 -321 158h-5q-193 0 -321 -158q-127 -151 -127 -362z" />
<glyph unicode="P" horiz-adv-x="1280" d="M150 0v1432q205 20 382 20q664 0 664 -422v-12q-6 -201 -152 -309q-143 -113 -370 -117q-23 0 -72 -2l-99 -4t-100 -2v-584h-253zM403 801q170 -6 177 -6q340 0 364 227v16q0 123 -168 172q-109 29 -256 29q-35 0 -117 -4v-434z" />
<glyph unicode="Q" horiz-adv-x="1619" d="M86 719q0 297 211 514q209 215 516 215h4q303 -4 508 -209q203 -203 207 -496v-12q0 -160 -51 -270q-55 -121 -176 -230l163 -161l-204 -136l-136 138q-143 -88 -321 -88q-295 0 -508 225q-213 219 -213 510zM338 715q0 -203 145.5 -360.5t327.5 -157.5q88 4 156 39 l-271 278l213 123l230 -236q133 139 137 322v12q0 195 -129 346q-135 150 -336 154q-201 0 -336 -154q-137 -151 -137 -366z" />
<glyph unicode="R" horiz-adv-x="1372" d="M150 0v1432q205 20 382 20q664 0 664 -422v-12q-6 -268 -274 -377l366 -618l-276 -41l-348 610q-10 0 -104.5 -3l-156.5 -5v-584h-253zM403 801q170 -6 177 -6q340 0 364 227v16q0 127 -168 172q-109 29 -256 29q-35 0 -117 -4v-434z" />
<glyph unicode="S" horiz-adv-x="1267" d="M88 131l127 201q31 -31 158 -78q137 -51 225 -53h29q129 0 217 69q86 68 86 166q0 88 -80 150q-80 55 -213 55h-35q-12 -2 -37 -2q-186 0 -313 115q-131 117 -131 288v21q6 174 192 285q154 96 328 98h25q109 0 241 -31q139 -33 189 -78l-103 -190q-211 86 -336 86h-16 q-119 -6 -192 -72q-78 -68 -78 -145q0 -74 73 -119q76 -45 222 -45h24h21q209 0 340 -125q129 -125 129 -311q0 -39 -2 -60q-43 -324 -584 -370q-14 -2 -41 -2q-117 0 -264 49q-152 53 -201 98z" />
<glyph unicode="T" horiz-adv-x="1323" d="M88 1221l23 213h1106l22 -213h-448v-1221h-254v1221h-449z" />
<glyph unicode="U" horiz-adv-x="1497" d="M150 592v840l253 20v-854q2 -20 5.5 -61t5.5 -62q6 -68 28 -119q35 -78 115 -118q78 -41 174 -41q156 0 264 96q104 96 105 242q0 31 -2 47v852h254v-852q0 -281 -168 -443q-160 -154 -410 -153h-33q-591 22 -591 606z" />
<glyph unicode="V" horiz-adv-x="1478" d="M47 1413l258 39l434 -1112l435 1112l258 -39l-558 -1413h-270z" />
<glyph unicode="W" horiz-adv-x="2002" d="M29 1413l262 39l295 -1067l291 1030h249l291 -1030l295 1067l264 -39l-438 -1413h-246l-291 1032l-290 -1032h-246z" />
<glyph unicode="X" horiz-adv-x="1329" d="M47 23l477 720l-440 668l283 41l301 -496l301 496l282 -41l-442 -668l477 -720l-285 -41l-333 550l-336 -550z" />
<glyph unicode="Y" horiz-adv-x="1271" d="M6 1413l287 39l344 -612l346 612l283 -41l-502 -807v-604h-254v604z" />
<glyph unicode="Z" horiz-adv-x="1351" d="M88 186l809 1035h-782l16 213h1081l25 -177l-817 -1044h846l-23 -213h-1134z" />
<glyph unicode="[" horiz-adv-x="612" d="M150 -530v2064h440v-217h-187v-1634h187v-213h-440z" />
<glyph unicode="\" horiz-adv-x="1017" d="M-6 1458l235 86l795 -1786l-231 -94z" />
<glyph unicode="]" horiz-adv-x="612" d="M27 -317h186v1634h-186v217h440v-2064h-440v213z" />
<glyph unicode="^" horiz-adv-x="929" d="M88 1274l295 209h172l289 -209l-129 -107l-248 158l-250 -158z" />
<glyph unicode="_" horiz-adv-x="1665" d="M88 0h1493v-143h-1493v143z" />
<glyph unicode="`" horiz-adv-x="673" d="M66 1335l200 131l342 -266l-164 -88z" />
<glyph unicode="a" horiz-adv-x="1103" d="M68 299v20q0 186 198 293q98 53 252 54q89 0 184 -19v27q0 94 -40 123q-27 16 -154 26h-16q-100 0 -285 -71l-103 184q260 96 396 96h16q123 -6 178 -18q88 -20 160 -84q100 -88 100 -260v-70q-2 -31 -2 -70v-532h-254v27q-133 -41 -215 -41q-166 0 -282 79 q-123 89 -133 236zM315 319q0 -125 179 -124q92 0 204 30v211q-78 14 -159 15q-223 0 -224 -127v-5z" />
<glyph unicode="b" horiz-adv-x="1239" d="M150 0v1470l253 21v-516q145 55 236 55h12q225 -8 359 -135q141 -137 143 -379v-24q0 -463 -485 -506h-25q-5 0 -11 -1q-90 0 -229 50v-35h-253zM403 242q150 -43 254 -43q70 0 103 22q82 63 110 123q31 61 31 168q-2 172 -143 266q-39 27 -109 27q-102 0 -246 -53v-510z " />
<glyph unicode="c" horiz-adv-x="1107" d="M86 510q0 209 147 362q147 151 375 160h10q133 0 404 -94l-109 -201q-41 20 -94 43q-114 43 -215 43q-109 0 -186.5 -96t-77.5 -215v-6q0 -121 78 -215q78 -92 188 -96h12q123 0 302 73l100 -186q-262 -98 -395 -98q-18 0 -29 2q-215 18 -362.5 171.5t-147.5 352.5z" />
<glyph unicode="d" horiz-adv-x="1239" d="M88 496v20q4 244 141 379q133 127 359 135q16 2 51 2q121 0 201 -33v492l254 -21v-1470h-254v35q-147 -47 -242 -51q-18 0 -27 2q-483 47 -483 510zM342 500q0 -94 29 -156q25 -59 108 -123q33 -23 103 -22q101 0 258 43v534q-98 35 -211 35q-94 0 -146 -33 q-139 -92 -141 -266v-12z" />
<glyph unicode="e" horiz-adv-x="1189" d="M88 510q0 219 148 371q143 150 362 149q213 0 360 -141q145 -143 146 -354q0 -59 -17 -125l-725 -23q27 -86 113 -143q82 -57 180 -58q162 0 265 95l102 -187q-51 -47 -178 -82q-111 -31 -197 -30q-217 0 -387 157q-172 156 -172 371zM350 588l484 16q-12 94 -76 156 q-66 59 -162 63h-4q-96 0 -168 -65q-72 -72 -74 -170z" />
<glyph unicode="f" horiz-adv-x="878" d="M47 811v199h180v28q0 176 68 269q80 109 276 139q25 4 43 4q125 0 342 -78l-120 -192q-139 57 -234 57q-53 0 -80 -23q-43 -35 -43 -161q0 -29 2 -43h361v-199h-359v-811h-254v811h-182z" />
<glyph unicode="g" horiz-adv-x="1261" d="M88 475v21q0 240 145 385q133 129 361 151h22q90 0 244 -59v49l254 -21v-987q-2 -72 -16 -141q-31 -156 -105 -225q-127 -121 -329 -121q-143 0 -467 96l104 195q186 -74 322 -74q98 0 163 41q33 20 52 70q2 2 18 84q4 29 4 49v18q-137 -45 -231 -45h-21 q-225 14 -366 137q-152 135 -154 377zM342 467q3 -169 141 -264q45 -29 127 -29q106 0 250 43v535q-182 53 -287 53q-66 0 -92 -21q-139 -104 -139 -305v-12z" />
<glyph unicode="h" horiz-adv-x="1204" d="M150 0v1470l253 21v-504q154 66 248 70h8q141 0 281 -78q154 -88 168 -197q14 -78 14 -403q0 -88 -4 -379h-260l4 643q-2 186 -213 199h-12q-86 0 -234 -74v-768h-253z" />
<glyph unicode="i" horiz-adv-x="579" d="M150 1397v4q0 55 40 96q39 37 97 37h4q59 -4 98 -39q41 -41 43 -94q0 -53 -41 -94q-41 -37 -100 -41h-4q-57 0 -97 39q-40 41 -40 92zM164 0v997l254 21v-1018h-254z" />
<glyph unicode="j" horiz-adv-x="581" d="M-319 -408l67 189q141 -55 223 -55q113 0 154 96q39 92 39 258v917l254 21v-938q-2 -98 -23 -186q-43 -201 -139 -275q-121 -90 -307 -90q-90 0 -268 63zM150 1399q0 55 40 96q39 39 101 39q59 0 100 -39q41 -41 41 -96q0 -59 -41 -96q-45 -41 -100 -41q-59 0 -101 41 q-40 37 -40 96z" />
<glyph unicode="k" horiz-adv-x="1105" d="M150 -2v1472l253 21v-750l375 285l264 -70l-501 -393l565 -534l-256 -64l-447 414v-381h-253z" />
<glyph unicode="l" horiz-adv-x="550" d="M150 0v1470l253 21v-1491h-253z" />
<glyph unicode="m" horiz-adv-x="1900" d="M150 0v1004l253 18v-68q143 74 234 78h12q182 0 328 -123q199 123 354 123h8q150 -4 281 -80q141 -78 160 -188q14 -80 14 -438q0 -203 -2 -326h-258v629q0 104 -45 147q-46 43 -154 49h-8q-84 0 -237 -98q12 -113 12 -446q0 -176 -2 -281h-258v629q0 186 -207 196h-8 q-82 0 -224 -80v-745h-253z" />
<glyph unicode="n" horiz-adv-x="1196" d="M150 0v1004l253 18v-68q143 74 234 78h12q139 0 273 -76q139 -84 157 -192q14 -74 15 -393q0 -84 -4 -371h-261l5 629q0 186 -197 194h-8q-82 0 -226 -78v-745h-253z" />
<glyph unicode="o" horiz-adv-x="1202" d="M68 512q0 211 157 369q152 152 373 151h12q218 -3 369 -147q145 -141 158 -346v-33q0 -201 -146 -352q-156 -168 -391 -168q-223 0 -381 161q-151 158 -151 365zM319 508q0 -129 82 -219q83 -92 203 -92q121 0 201 94q78 94 78 217v8q-2 125 -80 217q-80 90 -199 90 q-120 0 -203 -92q-82 -94 -82 -223z" />
<glyph unicode="p" horiz-adv-x="1239" d="M150 -473v1474l253 21v-49q150 59 242 59h23q485 -45 485 -495v-21q-2 -244 -137 -391q-131 -143 -363 -162q-8 -2 -26 -2q-90 0 -224 45v-459zM403 219q133 -43 232 -43q78 0 123 29q66 47 104 133q35 80 39 172q0 102 -29 160q-27 53 -112 116q-27 20 -90 21 q-106 0 -267 -51v-537z" />
<glyph unicode="q" horiz-adv-x="1251" d="M88 516v21q0 238 145 370q127 115 340 125h13q98 0 254 -61v51l254 -21v-1183q0 -59 36 -76q35 -14 173 -14l-123 -197q-63 4 -93 8q-100 16 -141 45q-106 80 -106 205v217q-135 -45 -228 -45q-18 0 -26 2q-229 18 -361 162q-135 147 -137 391zM342 512q0 -89 37 -172 q39 -86 104 -133q45 -29 123 -29q101 0 234 43v535q-160 47 -256 47q-242 0 -242 -279v-12z" />
<glyph unicode="r" horiz-adv-x="946" d="M150 0v1004l253 18v-53q84 59 166 63h6q127 0 326 -84l-94 -186q-176 61 -240 63h-8q-76 0 -156 -80v-745h-253z" />
<glyph unicode="s" horiz-adv-x="1073" d="M88 92l98 174q170 -70 258 -69h15q279 18 278 131q-3 52 -18 67q-28 25 -123 25q-51 0 -86 -2q-14 -2 -45 -2q-156 0 -252 78q-106 86 -107 235q0 158 170 242q133 63 322 63q168 0 342 -102l-102 -195q-34 34 -105 62q-80 29 -141 28q-16 0 -41 -4q-106 -18 -123 -26 q-59 -25 -66 -76v-10q0 -47 35 -66q41 -18 150 -18h43h20q182 0 285 -78q92 -74 92 -209q0 -29 -2 -43q-18 -157 -190 -240q-141 -66 -336 -71h-10q-88 0 -203 34q-115 33 -158 72z" />
<glyph unicode="t" horiz-adv-x="821" d="M27 811v199h192v239l254 39v-278h238v-199h-238v-545q0 -57 12 -59q16 -4 25 -4q55 0 143 61l105 -194q-158 -84 -236 -84h-4q-135 4 -213 65q-86 68 -86 187v573h-192z" />
<glyph unicode="u" horiz-adv-x="1196" d="M106 664q0 211 3 337l258 21l-2 -635q0 -209 184 -209q102 0 246 66v766h254v-992l-254 -38v55q-147 -47 -234 -49h-12q-135 0 -273 77q-139 80 -157 189q-13 83 -13 412z" />
<glyph unicode="v" horiz-adv-x="1181" d="M47 983l268 39l277 -703l274 703l271 -39l-435 -983h-223z" />
<glyph unicode="w" horiz-adv-x="1732" d="M47 983l262 39l219 -682l220 670h239l217 -670l221 682l263 -39l-367 -983h-240l-215 637l-217 -637h-237z" />
<glyph unicode="x" horiz-adv-x="1103" d="M47 23l356 491l-340 467l265 41l225 -324l221 324l266 -41l-340 -467l359 -491l-268 -41l-238 346l-240 -346z" />
<glyph unicode="y" horiz-adv-x="1177" d="M47 983l266 39l295 -723l277 723l245 -39l-479 -1216q-37 -133 -98 -181q-61 -49 -234 -55l-122 197q119 0 157 16q37 16 64 86q0 2 8 22.5l25.5 65.5l35.5 94z" />
<glyph unicode="z" horiz-adv-x="1064" d="M88 180l539 621h-508v209h790l41 -172l-547 -629h576l-23 -209h-829z" />
<glyph unicode="{" horiz-adv-x="907" d="M150 385v229q170 61 188 138q10 51 10 131q0 33 -4 127q-4 90 -4 125q0 94 12 145q34 138 166 203q102 51 367 51l-56 -231q-63 12 -106 12q-49 0 -68 -19q-72 -76 -71 -225q0 -10 4 -96q2 -43 2 -101q0 -178 -84 -290q-8 -10 -78 -88q98 -98 131 -172q35 -82 35 -197 q0 -4 -4 -98.5t-4 -108.5q0 -137 69 -213q18 -18 68 -18q43 0 106 12l56 -231q-266 0 -367 51q-132 65 -166 203q-12 51 -12 143q0 31 4 125t4 125q0 82 -10 133q-18 74 -188 135z" />
<glyph unicode="|" horiz-adv-x="520" d="M150 0v1534h225v-1534h-225z" />
<glyph unicode="}" horiz-adv-x="907" d="M27 -530l57 231q63 -12 102 -12q51 0 70 18q68 77 68 221q0 53 -2 99q-4 43 -5 100q0 184 91 289q20 29 75 80q-98 104 -131 184q-31 77 -30 197q0 8 4 94q2 43 2 96q0 152 -72 229q-18 18 -70 19q-39 0 -102 -12l-57 231q266 0 366 -51q131 -66 164 -203q14 -55 14 -158 q0 -31 -4 -112q-4 -98 -4 -129q0 -78 10 -129q18 -76 189 -138v-229q-170 -61 -189 -135q-10 -51 -10 -129q0 -31 4 -129q4 -78 4 -105q0 -102 -16 -163q-35 -139 -162 -203q-100 -51 -366 -51z" />
<glyph unicode="~" horiz-adv-x="872" d="M63 498v225q20 45 80 76q66 35 123 35q70 0 176.5 -66t169.5 -66q72 0 203 132v-213q-123 -123 -203 -123q-68 0 -174 65q-102 63 -172 64h-4q-53 0 -115 -37q-64 -41 -84 -92z" />
<glyph unicode="&#xa2;" horiz-adv-x="1091" d="M86 555q0 156 102 281q111 131 306 178v133h225v-127q108 -18 252 -80l-37 -192q-51 29 -215 81v-536q113 23 252 115l33 -195q-37 -23 -91 -47q-100 -49 -194 -66v-100h-225v106q-195 41 -306 173q-102 120 -102 276zM309 561q0 -160 185 -242v490q-185 -86 -185 -248z " />
<glyph unicode="&#xa3;" horiz-adv-x="1058" d="M88 0v213q25 -2 62 -2q31 0 38 2q51 8 74 57v172h-174v209h174v119q0 141 96 248q96 102 248 123q10 2 31 2q121 0 319 -103l-77 -188q-137 84 -203 84q-12 0 -19 -2q-141 -29 -141 -168v-115h358v-209h-358v-176q0 -4 -2 -12t-3 -20.5t-3 -22.5h465v-211h-885z" />
<glyph unicode="&#xa5;" horiz-adv-x="1263" d="M88 1108l272 31l271 -398l272 398l275 -31l-373 -526h199v-209h-234v-64h234v-209h-234v-100h-274v100h-236v209h236v64h-236v209h201z" />
<glyph unicode="&#xa9;" horiz-adv-x="1124" d="M88 705q0 199 139.5 338t338 139t335.5 -140q139 -139 139 -337q0 -197 -139 -336q-141 -141 -336 -142q-197 0 -338 142q-139 139 -139 336zM223 704.5q0 -133.5 104.5 -238t237.5 -104.5q131 0 235.5 104.5t104.5 238t-104.5 238t-235.5 104.5q-133 0 -237.5 -104.5 t-104.5 -238zM315 705v6q0 100 66 172q68 70 164 82q6 2 18 2q61 0 166 -43l-14 -146q-89 49 -142 49q-94 0 -94 -118v-4q0 -121 103 -121q55 0 151 65l12 -145q-115 -57 -184 -58h-12q-106 12 -170 86q-64 73 -64 173z" />
<glyph unicode="&#xad;" d="M150 424v225h536v-225h-536z" />
<glyph unicode="&#xae;" horiz-adv-x="1124" d="M88 705q0 199 139.5 338t338 139t335.5 -140q139 -143 139 -337q0 -197 -139 -336q-141 -141 -336 -142q-197 0 -338 142q-139 139 -139 336zM223 704.5q0 -133.5 104.5 -238t237.5 -104.5q131 0 235.5 104.5t104.5 238t-104.5 238t-235.5 104.5q-133 0 -237.5 -104.5 t-104.5 -238zM395 453v499q43 4 142 11q23 0 32 -2q190 -14 191 -162v-4q-4 -82 -68 -127l107 -197l-148 -29l-98 189h-21v-178h-137zM532 762h19q63 0 70 39q0 16 -41 22q-33 4 -48 4v-65z" />
<glyph unicode="&#xb4;" horiz-adv-x="694" d="M76 1221l344 266l201 -131l-381 -223z" />
<glyph unicode="&#x2000;" horiz-adv-x="772" />
<glyph unicode="&#x2001;" horiz-adv-x="1546" />
<glyph unicode="&#x2002;" horiz-adv-x="772" />
<glyph unicode="&#x2003;" horiz-adv-x="1546" />
<glyph unicode="&#x2004;" horiz-adv-x="514" />
<glyph unicode="&#x2005;" horiz-adv-x="385" />
<glyph unicode="&#x2006;" horiz-adv-x="256" />
<glyph unicode="&#x2007;" horiz-adv-x="256" />
<glyph unicode="&#x2008;" horiz-adv-x="192" />
<glyph unicode="&#x2009;" horiz-adv-x="307" />
<glyph unicode="&#x200a;" horiz-adv-x="83" />
<glyph unicode="&#x2010;" d="M150 424v225h536v-225h-536z" />
<glyph unicode="&#x2011;" d="M150 424v225h536v-225h-536z" />
<glyph unicode="&#x2012;" d="M150 424v225h536v-225h-536z" />
<glyph unicode="&#x2013;" horiz-adv-x="1159" d="M129 424v225h905v-225h-905z" />
<glyph unicode="&#x2014;" horiz-adv-x="1734" d="M129 424v225h1479v-225h-1479z" />
<glyph unicode="&#x2018;" horiz-adv-x="430" d="M47 1196q0 37 49 107l174 245l117 -47l-59 -311q-29 -133 -142 -133q-57 0 -96 39q-43 39 -43 100z" />
<glyph unicode="&#x2019;" horiz-adv-x="430" d="M47 1096l59 311q25 133 140 133q59 0 100 -39q41 -41 41 -100q0 -37 -49 -107l-174 -245z" />
<glyph unicode="&#x201c;" horiz-adv-x="784" d="M47 1196q0 37 49 107l174 245l117 -47l-59 -311q-29 -133 -142 -133q-57 0 -96 39q-43 39 -43 100zM401 1196q0 37 50 107l174 245l116 -47l-59 -311q-29 -133 -141 -133q-57 0 -97 39q-43 39 -43 100z" />
<glyph unicode="&#x201d;" horiz-adv-x="784" d="M47 1096l59 311q25 133 140 133q57 0 98 -39q43 -39 43 -100q0 -37 -49 -107l-174 -245zM401 1096l60 311q25 133 139 133q59 0 100 -39q41 -41 41 -100q0 -37 -49 -107l-174 -245z" />
<glyph unicode="&#x2022;" horiz-adv-x="673" d="M88 586q0 101 74 172q74 70 176 69q100 0 176 -69q74 -71 74 -172.5t-74 -171.5q-76 -72 -176 -72q-104 0 -176 72q-74 68 -74 172z" />
<glyph unicode="&#x2026;" horiz-adv-x="1400" d="M88 145.5q0 67.5 47 114.5t115 47q63 0 115 -47q49 -47 49 -114.5t-49 -114.5q-51 -47 -115 -47q-68 0 -115 47t-47 114.5zM539 145.5q0 67.5 47 114.5t114 47q63 0 115 -47q49 -47 49 -114.5t-49 -114.5q-51 -47 -115 -47q-68 0 -114.5 47t-46.5 114.5zM989 145.5 q0 67.5 47 114.5t115 47q63 0 115 -47q49 -47 49 -114.5t-49 -114.5q-51 -47 -115 -47q-68 0 -115 47t-47 114.5z" />
<glyph unicode="&#x202f;" horiz-adv-x="307" />
<glyph unicode="&#x205f;" horiz-adv-x="385" />
<glyph unicode="&#x2122;" horiz-adv-x="1380" d="M129 1311v123h481v-123h-168v-426h-145v426h-168zM629 897l55 537h129l129 -318l125 318h131l57 -537l-149 -25l-21 218l-81 -205h-123l-84 205l-19 -218z" />
<glyph unicode="&#xe000;" horiz-adv-x="1020" d="M0 1020h1020v-1020h-1020v1020z" />
<glyph unicode="&#xfb01;" horiz-adv-x="1458" d="M1029 1397v4q0 55 40 96q39 37 97 37h4q59 -4 98 -39q41 -41 43 -94q0 -53 -41 -94q-41 -37 -100 -41h-4q-57 0 -97 39q-40 41 -40 92zM1043 0v997l254 21v-1018h-254zM47 811v199h180v28q0 176 68 269q80 109 276 139q25 4 43 4q125 0 342 -78l-120 -192 q-139 57 -234 57q-53 0 -80 -23q-43 -35 -43 -161q0 -29 2 -43h361v-199h-359v-811h-254v811h-182z" />
<glyph unicode="&#xfb02;" horiz-adv-x="1429" d="M1029 0v1470l253 21v-1491h-253zM47 811v199h180v28q0 176 68 269q80 109 276 139q25 4 43 4q125 0 342 -78l-120 -192q-139 57 -234 57q-53 0 -80 -23q-43 -35 -43 -161q0 -29 2 -43h361v-199h-359v-811h-254v811h-182z" />
<glyph unicode="&#xfb03;" horiz-adv-x="2336" d="M1907 1397v4q0 55 40 96q39 37 97 37h4q59 -4 98 -39q41 -41 43 -94q0 -53 -41 -94q-41 -37 -100 -41h-4q-57 0 -97 39q-40 41 -40 92zM1921 0v997l254 21v-1018h-254zM926 811v199h180v28q0 176 68 269q80 109 276 139q25 4 43 4q125 0 342 -78l-120 -192 q-139 57 -234 57q-53 0 -80 -23q-43 -35 -43 -161q0 -29 2 -43h361v-199h-359v-811h-254v811h-182zM47 811v199h180v28q0 176 68 269q80 109 276 139q25 4 43 4q125 0 342 -78l-120 -192q-139 57 -234 57q-53 0 -80 -23q-43 -35 -43 -161q0 -29 2 -43h361v-199h-359v-811 h-254v811h-182z" />
<glyph unicode="&#xfb04;" horiz-adv-x="2308" d="M1907 0v1470l253 21v-1491h-253zM926 811v199h180v28q0 176 68 269q80 109 276 139q25 4 43 4q125 0 342 -78l-120 -192q-139 57 -234 57q-53 0 -80 -23q-43 -35 -43 -161q0 -29 2 -43h361v-199h-359v-811h-254v811h-182zM47 811v199h180v28q0 176 68 269q80 109 276 139 q25 4 43 4q125 0 342 -78l-120 -192q-139 57 -234 57q-53 0 -80 -23q-43 -35 -43 -161q0 -29 2 -43h361v-199h-359v-811h-254v811h-182z" />
</font>
</defs>
</svg>
